<mxfile host="app.diagrams.net" agent="Mozilla/5.0 (Windows NT 10.0; Win64; x64; rv:137.0) Gecko/20100101 Firefox/137.0" version="26.2.14">
  <diagram name="Page-1" id="xWzGugxPXuvn6q_J0ycd">
    <mxGraphModel dx="473" dy="1056" grid="1" gridSize="10" guides="1" tooltips="1" connect="1" arrows="1" fold="1" page="1" pageScale="1" pageWidth="850" pageHeight="1100" math="0" shadow="0">
      <root>
        <mxCell id="0" />
        <mxCell id="1" parent="0" />
        <mxCell id="DZQHsEEwgcMoI3bsD-jE-14" style="edgeStyle=orthogonalEdgeStyle;rounded=0;orthogonalLoop=1;jettySize=auto;html=1;" edge="1" parent="1" target="DZQHsEEwgcMoI3bsD-jE-11">
          <mxGeometry relative="1" as="geometry">
            <mxPoint x="100" y="90" as="sourcePoint" />
          </mxGeometry>
        </mxCell>
        <mxCell id="DZQHsEEwgcMoI3bsD-jE-15" style="edgeStyle=orthogonalEdgeStyle;rounded=0;orthogonalLoop=1;jettySize=auto;html=1;entryX=0;entryY=0.5;entryDx=0;entryDy=0;" edge="1" parent="1" source="DZQHsEEwgcMoI3bsD-jE-1" target="DZQHsEEwgcMoI3bsD-jE-12">
          <mxGeometry relative="1" as="geometry">
            <Array as="points">
              <mxPoint x="170" y="90" />
              <mxPoint x="170" y="140" />
            </Array>
          </mxGeometry>
        </mxCell>
        <mxCell id="DZQHsEEwgcMoI3bsD-jE-1" value="Admin" style="shape=umlActor;verticalLabelPosition=bottom;verticalAlign=top;html=1;outlineConnect=0;" vertex="1" parent="1">
          <mxGeometry x="70" y="60" width="30" height="60" as="geometry" />
        </mxCell>
        <mxCell id="DZQHsEEwgcMoI3bsD-jE-18" style="edgeStyle=orthogonalEdgeStyle;rounded=0;orthogonalLoop=1;jettySize=auto;html=1;entryX=0;entryY=0.5;entryDx=0;entryDy=0;" edge="1" parent="1" source="DZQHsEEwgcMoI3bsD-jE-2" target="DZQHsEEwgcMoI3bsD-jE-17">
          <mxGeometry relative="1" as="geometry">
            <Array as="points">
              <mxPoint x="250" y="330" />
            </Array>
          </mxGeometry>
        </mxCell>
        <mxCell id="DZQHsEEwgcMoI3bsD-jE-20" style="edgeStyle=orthogonalEdgeStyle;rounded=0;orthogonalLoop=1;jettySize=auto;html=1;entryX=0;entryY=0.5;entryDx=0;entryDy=0;" edge="1" parent="1" source="DZQHsEEwgcMoI3bsD-jE-2" target="DZQHsEEwgcMoI3bsD-jE-19">
          <mxGeometry relative="1" as="geometry">
            <Array as="points">
              <mxPoint x="170" y="330" />
              <mxPoint x="170" y="450" />
            </Array>
          </mxGeometry>
        </mxCell>
        <mxCell id="DZQHsEEwgcMoI3bsD-jE-22" style="edgeStyle=orthogonalEdgeStyle;rounded=0;orthogonalLoop=1;jettySize=auto;html=1;entryX=0;entryY=0.5;entryDx=0;entryDy=0;" edge="1" parent="1" source="DZQHsEEwgcMoI3bsD-jE-2" target="DZQHsEEwgcMoI3bsD-jE-21">
          <mxGeometry relative="1" as="geometry">
            <Array as="points">
              <mxPoint x="170" y="330" />
              <mxPoint x="170" y="550" />
            </Array>
          </mxGeometry>
        </mxCell>
        <mxCell id="DZQHsEEwgcMoI3bsD-jE-2" value="Employee" style="shape=umlActor;verticalLabelPosition=bottom;verticalAlign=top;html=1;outlineConnect=0;" vertex="1" parent="1">
          <mxGeometry x="70" y="300" width="30" height="60" as="geometry" />
        </mxCell>
        <mxCell id="DZQHsEEwgcMoI3bsD-jE-25" style="edgeStyle=orthogonalEdgeStyle;rounded=0;orthogonalLoop=1;jettySize=auto;html=1;" edge="1" parent="1" source="DZQHsEEwgcMoI3bsD-jE-4" target="DZQHsEEwgcMoI3bsD-jE-23">
          <mxGeometry relative="1" as="geometry" />
        </mxCell>
        <mxCell id="DZQHsEEwgcMoI3bsD-jE-4" value="Visitor" style="shape=umlActor;verticalLabelPosition=bottom;verticalAlign=top;html=1;outlineConnect=0;" vertex="1" parent="1">
          <mxGeometry x="70" y="560" width="30" height="60" as="geometry" />
        </mxCell>
        <mxCell id="DZQHsEEwgcMoI3bsD-jE-11" value="Manage Rooms" style="ellipse;whiteSpace=wrap;html=1;" vertex="1" parent="1">
          <mxGeometry x="250" y="10" width="120" height="80" as="geometry" />
        </mxCell>
        <mxCell id="DZQHsEEwgcMoI3bsD-jE-12" value="Generate Reports " style="ellipse;whiteSpace=wrap;html=1;" vertex="1" parent="1">
          <mxGeometry x="260" y="100" width="120" height="80" as="geometry" />
        </mxCell>
        <mxCell id="DZQHsEEwgcMoI3bsD-jE-17" value="Book Room" style="ellipse;whiteSpace=wrap;html=1;" vertex="1" parent="1">
          <mxGeometry x="240" y="290" width="120" height="80" as="geometry" />
        </mxCell>
        <mxCell id="DZQHsEEwgcMoI3bsD-jE-19" value="Cancel Booking" style="ellipse;whiteSpace=wrap;html=1;" vertex="1" parent="1">
          <mxGeometry x="250" y="380" width="120" height="80" as="geometry" />
        </mxCell>
        <mxCell id="DZQHsEEwgcMoI3bsD-jE-21" value="View Availability" style="ellipse;whiteSpace=wrap;html=1;" vertex="1" parent="1">
          <mxGeometry x="260" y="510" width="120" height="80" as="geometry" />
        </mxCell>
        <mxCell id="DZQHsEEwgcMoI3bsD-jE-23" value="View Availabilty" style="ellipse;whiteSpace=wrap;html=1;" vertex="1" parent="1">
          <mxGeometry x="260" y="610" width="120" height="80" as="geometry" />
        </mxCell>
        <mxCell id="DZQHsEEwgcMoI3bsD-jE-26" value="" style="endArrow=block;html=1;rounded=0;endFill=0;entryX=0.5;entryY=0;entryDx=0;entryDy=0;entryPerimeter=0;" edge="1" parent="1" source="DZQHsEEwgcMoI3bsD-jE-1" target="DZQHsEEwgcMoI3bsD-jE-2">
          <mxGeometry width="50" height="50" relative="1" as="geometry">
            <mxPoint x="80" y="290" as="sourcePoint" />
            <mxPoint x="120" y="270" as="targetPoint" />
          </mxGeometry>
        </mxCell>
      </root>
    </mxGraphModel>
  </diagram>
</mxfile>
